<mxfile host="app.diagrams.net" agent="Mozilla/5.0 (Windows NT 10.0; Win64; x64) AppleWebKit/537.36 (KHTML, like Gecko) Chrome/130.0.0.0 Safari/537.36" version="24.7.16">
  <diagram name="Trang-1" id="kW0gPQSWV5FPmKFy8nVZ">
    <mxGraphModel grid="1" page="1" gridSize="10" guides="1" tooltips="1" connect="1" arrows="1" fold="1" pageScale="1" pageWidth="827" pageHeight="1169" math="0" shadow="0">
      <root>
        <mxCell id="0" />
        <mxCell id="1" parent="0" />
        <mxCell id="y2Dwyf6p7NAcK_J0pq-8-106" value="" style="rounded=0;whiteSpace=wrap;html=1;" vertex="1" parent="1">
          <mxGeometry x="1860" y="80" width="480" height="600" as="geometry" />
        </mxCell>
        <mxCell id="SW3iR9n_YRUjXRnQfsZG-68" value="" style="rounded=0;whiteSpace=wrap;html=1;" vertex="1" parent="1">
          <mxGeometry x="920" y="30" width="720" height="1040" as="geometry" />
        </mxCell>
        <mxCell id="y2Dwyf6p7NAcK_J0pq-8-80" value="" style="rounded=0;whiteSpace=wrap;html=1;" vertex="1" parent="1">
          <mxGeometry x="890" y="50" width="720" height="1040" as="geometry" />
        </mxCell>
        <mxCell id="y2Dwyf6p7NAcK_J0pq-8-141" value="&amp;lt;&amp;lt;REST API&amp;gt;&amp;gt;" style="edgeStyle=orthogonalEdgeStyle;rounded=0;orthogonalLoop=1;jettySize=auto;html=1;exitX=1;exitY=0.75;exitDx=0;exitDy=0;entryX=1;entryY=0.25;entryDx=0;entryDy=0;strokeWidth=2;" edge="1" parent="1" source="y2Dwyf6p7NAcK_J0pq-8-76" target="y2Dwyf6p7NAcK_J0pq-8-72">
          <mxGeometry relative="1" as="geometry" />
        </mxCell>
        <mxCell id="y2Dwyf6p7NAcK_J0pq-8-76" value="" style="rounded=0;whiteSpace=wrap;html=1;" vertex="1" parent="1">
          <mxGeometry x="950" y="90" width="610" height="415" as="geometry" />
        </mxCell>
        <mxCell id="y2Dwyf6p7NAcK_J0pq-8-72" value="" style="rounded=0;whiteSpace=wrap;html=1;" vertex="1" parent="1">
          <mxGeometry x="950" y="548.5" width="610" height="490" as="geometry" />
        </mxCell>
        <mxCell id="SW3iR9n_YRUjXRnQfsZG-70" value="" style="rounded=0;whiteSpace=wrap;html=1;" vertex="1" parent="1">
          <mxGeometry x="920" y="115" width="610" height="415" as="geometry" />
        </mxCell>
        <mxCell id="SW3iR9n_YRUjXRnQfsZG-14" value="" style="rounded=0;whiteSpace=wrap;html=1;" vertex="1" parent="1">
          <mxGeometry x="400" y="317.57" width="240" height="320" as="geometry" />
        </mxCell>
        <mxCell id="SW3iR9n_YRUjXRnQfsZG-15" value="" style="rounded=0;whiteSpace=wrap;html=1;" vertex="1" parent="1">
          <mxGeometry x="380" y="337.57" width="240" height="320" as="geometry" />
        </mxCell>
        <mxCell id="SW3iR9n_YRUjXRnQfsZG-16" value="" style="endArrow=none;html=1;rounded=0;entryX=1;entryY=0;entryDx=0;entryDy=0;exitX=1;exitY=0;exitDx=0;exitDy=0;" edge="1" parent="1" source="SW3iR9n_YRUjXRnQfsZG-15" target="SW3iR9n_YRUjXRnQfsZG-14">
          <mxGeometry width="50" height="50" relative="1" as="geometry">
            <mxPoint x="750" y="587.57" as="sourcePoint" />
            <mxPoint x="800" y="537.57" as="targetPoint" />
          </mxGeometry>
        </mxCell>
        <mxCell id="SW3iR9n_YRUjXRnQfsZG-17" value="" style="endArrow=none;html=1;rounded=0;exitX=1;exitY=1;exitDx=0;exitDy=0;entryX=1;entryY=1;entryDx=0;entryDy=0;" edge="1" parent="1" source="SW3iR9n_YRUjXRnQfsZG-15" target="SW3iR9n_YRUjXRnQfsZG-14">
          <mxGeometry width="50" height="50" relative="1" as="geometry">
            <mxPoint x="750" y="587.57" as="sourcePoint" />
            <mxPoint x="800" y="537.57" as="targetPoint" />
          </mxGeometry>
        </mxCell>
        <mxCell id="SW3iR9n_YRUjXRnQfsZG-18" value="" style="endArrow=none;html=1;rounded=0;entryX=0;entryY=0;entryDx=0;entryDy=0;exitX=0;exitY=0;exitDx=0;exitDy=0;" edge="1" parent="1" source="SW3iR9n_YRUjXRnQfsZG-15" target="SW3iR9n_YRUjXRnQfsZG-14">
          <mxGeometry width="50" height="50" relative="1" as="geometry">
            <mxPoint x="750" y="587.57" as="sourcePoint" />
            <mxPoint x="800" y="537.57" as="targetPoint" />
          </mxGeometry>
        </mxCell>
        <mxCell id="SW3iR9n_YRUjXRnQfsZG-29" value="&amp;lt;&amp;lt;device&amp;gt;&amp;gt;" style="text;html=1;align=center;verticalAlign=middle;whiteSpace=wrap;rounded=0;" vertex="1" parent="1">
          <mxGeometry x="470" y="337.57" width="60" height="30" as="geometry" />
        </mxCell>
        <mxCell id="SW3iR9n_YRUjXRnQfsZG-30" value="&amp;lt;&amp;lt;web browser&amp;gt;&amp;gt;&amp;nbsp;" style="text;html=1;align=center;verticalAlign=middle;whiteSpace=wrap;rounded=0;" vertex="1" parent="1">
          <mxGeometry x="1183.5" y="50" width="110" height="30" as="geometry" />
        </mxCell>
        <mxCell id="SW3iR9n_YRUjXRnQfsZG-31" value="" style="rounded=1;whiteSpace=wrap;html=1;" vertex="1" parent="1">
          <mxGeometry x="970" y="155" width="160" height="65" as="geometry" />
        </mxCell>
        <mxCell id="SW3iR9n_YRUjXRnQfsZG-32" value="&amp;lt;&amp;lt;component&amp;gt;&amp;gt;&amp;nbsp;" style="text;html=1;align=center;verticalAlign=middle;whiteSpace=wrap;rounded=0;" vertex="1" parent="1">
          <mxGeometry x="1020" y="155" width="60" height="30" as="geometry" />
        </mxCell>
        <mxCell id="SW3iR9n_YRUjXRnQfsZG-34" value="&lt;span style=&quot;font-size:12.0pt;line-height:107%;&lt;br/&gt;font-family:&amp;quot;Times New Roman&amp;quot;,serif;mso-fareast-font-family:&amp;quot;Yu Mincho&amp;quot;;&lt;br/&gt;mso-fareast-theme-font:minor-fareast;mso-ansi-language:VI;mso-fareast-language:&lt;br/&gt;JA;mso-bidi-language:AR-SA&quot;&gt;Printing&lt;/span&gt;" style="text;html=1;align=center;verticalAlign=middle;whiteSpace=wrap;rounded=0;" vertex="1" parent="1">
          <mxGeometry x="1020" y="190" width="60" height="30" as="geometry" />
        </mxCell>
        <mxCell id="SW3iR9n_YRUjXRnQfsZG-42" value="" style="rounded=1;whiteSpace=wrap;html=1;" vertex="1" parent="1">
          <mxGeometry x="970" y="354.5" width="160" height="65" as="geometry" />
        </mxCell>
        <mxCell id="SW3iR9n_YRUjXRnQfsZG-43" value="&amp;lt;&amp;lt;component&amp;gt;&amp;gt;&amp;nbsp;" style="text;html=1;align=center;verticalAlign=middle;whiteSpace=wrap;rounded=0;" vertex="1" parent="1">
          <mxGeometry x="1020" y="354.5" width="60" height="30" as="geometry" />
        </mxCell>
        <mxCell id="SW3iR9n_YRUjXRnQfsZG-44" value="&lt;span style=&quot;font-size: 16px;&quot;&gt;Payment&lt;/span&gt;" style="text;html=1;align=center;verticalAlign=middle;whiteSpace=wrap;rounded=0;" vertex="1" parent="1">
          <mxGeometry x="1001.25" y="389.5" width="97.5" height="30" as="geometry" />
        </mxCell>
        <mxCell id="SW3iR9n_YRUjXRnQfsZG-48" value="" style="rounded=1;whiteSpace=wrap;html=1;" vertex="1" parent="1">
          <mxGeometry x="970" y="255" width="160" height="65" as="geometry" />
        </mxCell>
        <mxCell id="SW3iR9n_YRUjXRnQfsZG-49" value="&amp;lt;&amp;lt;component&amp;gt;&amp;gt;&amp;nbsp;" style="text;html=1;align=center;verticalAlign=middle;whiteSpace=wrap;rounded=0;" vertex="1" parent="1">
          <mxGeometry x="1020" y="255" width="60" height="30" as="geometry" />
        </mxCell>
        <mxCell id="SW3iR9n_YRUjXRnQfsZG-50" value="&lt;span style=&quot;font-size:12.0pt;line-height:107%;&lt;br/&gt;font-family:&amp;quot;Times New Roman&amp;quot;,serif;mso-fareast-font-family:&amp;quot;Yu Mincho&amp;quot;;&lt;br/&gt;mso-fareast-theme-font:minor-fareast;mso-ansi-language:VI;mso-fareast-language:&lt;br/&gt;JA;mso-bidi-language:AR-SA&quot;&gt;Logging&lt;/span&gt;" style="text;html=1;align=center;verticalAlign=middle;whiteSpace=wrap;rounded=0;" vertex="1" parent="1">
          <mxGeometry x="1020" y="290" width="60" height="30" as="geometry" />
        </mxCell>
        <mxCell id="SW3iR9n_YRUjXRnQfsZG-61" value="" style="rounded=0;whiteSpace=wrap;html=1;" vertex="1" parent="1">
          <mxGeometry x="410" y="400.07" width="195" height="175" as="geometry" />
        </mxCell>
        <mxCell id="SW3iR9n_YRUjXRnQfsZG-62" value="" style="rounded=0;whiteSpace=wrap;html=1;" vertex="1" parent="1">
          <mxGeometry x="400" y="410.07" width="195" height="175" as="geometry" />
        </mxCell>
        <mxCell id="SW3iR9n_YRUjXRnQfsZG-63" value="" style="endArrow=none;html=1;rounded=0;entryX=1;entryY=0;entryDx=0;entryDy=0;exitX=1;exitY=0;exitDx=0;exitDy=0;" edge="1" parent="1" source="SW3iR9n_YRUjXRnQfsZG-62" target="SW3iR9n_YRUjXRnQfsZG-61">
          <mxGeometry width="50" height="50" relative="1" as="geometry">
            <mxPoint x="740" y="547.57" as="sourcePoint" />
            <mxPoint x="790" y="497.57" as="targetPoint" />
          </mxGeometry>
        </mxCell>
        <mxCell id="SW3iR9n_YRUjXRnQfsZG-65" value="" style="endArrow=none;html=1;rounded=0;exitX=1;exitY=1;exitDx=0;exitDy=0;entryX=1;entryY=1;entryDx=0;entryDy=0;" edge="1" parent="1" source="SW3iR9n_YRUjXRnQfsZG-61" target="SW3iR9n_YRUjXRnQfsZG-62">
          <mxGeometry width="50" height="50" relative="1" as="geometry">
            <mxPoint x="740" y="547.57" as="sourcePoint" />
            <mxPoint x="790" y="497.57" as="targetPoint" />
          </mxGeometry>
        </mxCell>
        <mxCell id="SW3iR9n_YRUjXRnQfsZG-66" value="" style="endArrow=none;html=1;rounded=0;entryX=0;entryY=0;entryDx=0;entryDy=0;exitX=0;exitY=0;exitDx=0;exitDy=0;" edge="1" parent="1" source="SW3iR9n_YRUjXRnQfsZG-62" target="SW3iR9n_YRUjXRnQfsZG-61">
          <mxGeometry width="50" height="50" relative="1" as="geometry">
            <mxPoint x="740" y="747.57" as="sourcePoint" />
            <mxPoint x="790" y="697.57" as="targetPoint" />
          </mxGeometry>
        </mxCell>
        <mxCell id="SW3iR9n_YRUjXRnQfsZG-67" value="" style="rounded=1;whiteSpace=wrap;html=1;" vertex="1" parent="1">
          <mxGeometry x="430" y="457.57" width="140" height="80" as="geometry" />
        </mxCell>
        <mxCell id="y2Dwyf6p7NAcK_J0pq-8-12" style="edgeStyle=orthogonalEdgeStyle;rounded=0;orthogonalLoop=1;jettySize=auto;html=1;exitX=0;exitY=0.5;exitDx=0;exitDy=0;dashed=1;" edge="1" parent="1" source="y2Dwyf6p7NAcK_J0pq-8-2" target="SW3iR9n_YRUjXRnQfsZG-31">
          <mxGeometry relative="1" as="geometry" />
        </mxCell>
        <mxCell id="y2Dwyf6p7NAcK_J0pq-8-2" value="" style="rounded=0;whiteSpace=wrap;html=1;" vertex="1" parent="1">
          <mxGeometry x="1295" y="155" width="160" height="65" as="geometry" />
        </mxCell>
        <mxCell id="y2Dwyf6p7NAcK_J0pq-8-3" value="&amp;lt;&amp;lt;artifact&amp;gt;&amp;gt;" style="text;html=1;align=center;verticalAlign=middle;whiteSpace=wrap;rounded=0;" vertex="1" parent="1">
          <mxGeometry x="1345" y="155" width="60" height="30" as="geometry" />
        </mxCell>
        <mxCell id="y2Dwyf6p7NAcK_J0pq-8-4" value="PrintingView.js" style="text;html=1;align=center;verticalAlign=middle;whiteSpace=wrap;rounded=0;" vertex="1" parent="1">
          <mxGeometry x="1332.5" y="190" width="85" height="30" as="geometry" />
        </mxCell>
        <mxCell id="y2Dwyf6p7NAcK_J0pq-8-5" value="" style="rounded=0;whiteSpace=wrap;html=1;" vertex="1" parent="1">
          <mxGeometry x="1295" y="255" width="160" height="65" as="geometry" />
        </mxCell>
        <mxCell id="y2Dwyf6p7NAcK_J0pq-8-6" value="&amp;lt;&amp;lt;artifact&amp;gt;&amp;gt;" style="text;html=1;align=center;verticalAlign=middle;whiteSpace=wrap;rounded=0;" vertex="1" parent="1">
          <mxGeometry x="1345" y="255" width="60" height="30" as="geometry" />
        </mxCell>
        <mxCell id="y2Dwyf6p7NAcK_J0pq-8-7" value="LoggingView.js" style="text;html=1;align=center;verticalAlign=middle;whiteSpace=wrap;rounded=0;" vertex="1" parent="1">
          <mxGeometry x="1332.5" y="290" width="85" height="30" as="geometry" />
        </mxCell>
        <mxCell id="y2Dwyf6p7NAcK_J0pq-8-8" value="" style="rounded=0;whiteSpace=wrap;html=1;" vertex="1" parent="1">
          <mxGeometry x="1295" y="354.5" width="160" height="65" as="geometry" />
        </mxCell>
        <mxCell id="y2Dwyf6p7NAcK_J0pq-8-9" value="&amp;lt;&amp;lt;artifact&amp;gt;&amp;gt;" style="text;html=1;align=center;verticalAlign=middle;whiteSpace=wrap;rounded=0;" vertex="1" parent="1">
          <mxGeometry x="1345" y="354.5" width="60" height="30" as="geometry" />
        </mxCell>
        <mxCell id="y2Dwyf6p7NAcK_J0pq-8-10" value="Payment.js" style="text;html=1;align=center;verticalAlign=middle;whiteSpace=wrap;rounded=0;" vertex="1" parent="1">
          <mxGeometry x="1332.5" y="389.5" width="85" height="30" as="geometry" />
        </mxCell>
        <mxCell id="y2Dwyf6p7NAcK_J0pq-8-13" value="&amp;lt;&amp;lt;manifest&amp;gt;&amp;gt;" style="text;html=1;align=center;verticalAlign=middle;whiteSpace=wrap;rounded=0;" vertex="1" parent="1">
          <mxGeometry x="1181" y="155" width="60" height="30" as="geometry" />
        </mxCell>
        <mxCell id="y2Dwyf6p7NAcK_J0pq-8-14" style="edgeStyle=orthogonalEdgeStyle;rounded=0;orthogonalLoop=1;jettySize=auto;html=1;exitX=0;exitY=0.5;exitDx=0;exitDy=0;dashed=1;" edge="1" parent="1">
          <mxGeometry relative="1" as="geometry">
            <mxPoint x="1295" y="284" as="sourcePoint" />
            <mxPoint x="1130" y="284" as="targetPoint" />
          </mxGeometry>
        </mxCell>
        <mxCell id="y2Dwyf6p7NAcK_J0pq-8-15" value="&amp;lt;&amp;lt;manifest&amp;gt;&amp;gt;" style="text;html=1;align=center;verticalAlign=middle;whiteSpace=wrap;rounded=0;" vertex="1" parent="1">
          <mxGeometry x="1181" y="251" width="60" height="30" as="geometry" />
        </mxCell>
        <mxCell id="y2Dwyf6p7NAcK_J0pq-8-16" style="edgeStyle=orthogonalEdgeStyle;rounded=0;orthogonalLoop=1;jettySize=auto;html=1;exitX=0;exitY=0.5;exitDx=0;exitDy=0;dashed=1;" edge="1" parent="1">
          <mxGeometry relative="1" as="geometry">
            <mxPoint x="1293.5" y="385.5" as="sourcePoint" />
            <mxPoint x="1128.5" y="385.5" as="targetPoint" />
          </mxGeometry>
        </mxCell>
        <mxCell id="y2Dwyf6p7NAcK_J0pq-8-17" value="&amp;lt;&amp;lt;manifest&amp;gt;&amp;gt;" style="text;html=1;align=center;verticalAlign=middle;whiteSpace=wrap;rounded=0;" vertex="1" parent="1">
          <mxGeometry x="1179.5" y="352.5" width="60" height="30" as="geometry" />
        </mxCell>
        <mxCell id="y2Dwyf6p7NAcK_J0pq-8-22" value="&amp;lt;&amp;lt;execution envioment&amp;gt;&amp;gt;&lt;div&gt;&lt;font style=&quot;font-size: 14px;&quot;&gt;ReactJS&lt;/font&gt;&lt;/div&gt;" style="text;html=1;align=center;verticalAlign=middle;whiteSpace=wrap;rounded=0;" vertex="1" parent="1">
          <mxGeometry x="1153" y="119" width="140.5" height="30" as="geometry" />
        </mxCell>
        <mxCell id="y2Dwyf6p7NAcK_J0pq-8-23" value="" style="rounded=0;whiteSpace=wrap;html=1;" vertex="1" parent="1">
          <mxGeometry x="920" y="570" width="610" height="490" as="geometry" />
        </mxCell>
        <mxCell id="y2Dwyf6p7NAcK_J0pq-8-24" value="" style="rounded=1;whiteSpace=wrap;html=1;" vertex="1" parent="1">
          <mxGeometry x="970" y="630" width="160" height="65" as="geometry" />
        </mxCell>
        <mxCell id="y2Dwyf6p7NAcK_J0pq-8-25" value="&amp;lt;&amp;lt;component&amp;gt;&amp;gt;&amp;nbsp;" style="text;html=1;align=center;verticalAlign=middle;whiteSpace=wrap;rounded=0;" vertex="1" parent="1">
          <mxGeometry x="1020" y="631.5" width="60" height="30" as="geometry" />
        </mxCell>
        <mxCell id="y2Dwyf6p7NAcK_J0pq-8-26" value="&lt;span style=&quot;font-size: 16px;&quot;&gt;Printing Controller&lt;/span&gt;" style="text;html=1;align=center;verticalAlign=middle;whiteSpace=wrap;rounded=0;" vertex="1" parent="1">
          <mxGeometry x="980" y="665" width="140" height="30" as="geometry" />
        </mxCell>
        <mxCell id="y2Dwyf6p7NAcK_J0pq-8-27" value="" style="rounded=1;whiteSpace=wrap;html=1;" vertex="1" parent="1">
          <mxGeometry x="970" y="730" width="160" height="65" as="geometry" />
        </mxCell>
        <mxCell id="y2Dwyf6p7NAcK_J0pq-8-28" value="&amp;lt;&amp;lt;component&amp;gt;&amp;gt;&amp;nbsp;" style="text;html=1;align=center;verticalAlign=middle;whiteSpace=wrap;rounded=0;" vertex="1" parent="1">
          <mxGeometry x="1020" y="730" width="60" height="30" as="geometry" />
        </mxCell>
        <mxCell id="y2Dwyf6p7NAcK_J0pq-8-29" value="&lt;span style=&quot;font-size: 16px;&quot;&gt;Logging Controller&lt;/span&gt;" style="text;html=1;align=center;verticalAlign=middle;whiteSpace=wrap;rounded=0;" vertex="1" parent="1">
          <mxGeometry x="975" y="765" width="150" height="30" as="geometry" />
        </mxCell>
        <mxCell id="y2Dwyf6p7NAcK_J0pq-8-30" value="" style="rounded=1;whiteSpace=wrap;html=1;" vertex="1" parent="1">
          <mxGeometry x="970" y="840" width="160" height="65" as="geometry" />
        </mxCell>
        <mxCell id="y2Dwyf6p7NAcK_J0pq-8-31" value="&amp;lt;&amp;lt;component&amp;gt;&amp;gt;&amp;nbsp;" style="text;html=1;align=center;verticalAlign=middle;whiteSpace=wrap;rounded=0;" vertex="1" parent="1">
          <mxGeometry x="1025" y="840" width="60" height="30" as="geometry" />
        </mxCell>
        <mxCell id="y2Dwyf6p7NAcK_J0pq-8-32" value="&lt;span style=&quot;font-size: 16px;&quot;&gt;Payment Controller&lt;/span&gt;" style="text;html=1;align=center;verticalAlign=middle;whiteSpace=wrap;rounded=0;" vertex="1" parent="1">
          <mxGeometry x="970" y="875" width="160" height="30" as="geometry" />
        </mxCell>
        <mxCell id="y2Dwyf6p7NAcK_J0pq-8-33" value="" style="rounded=0;whiteSpace=wrap;html=1;" vertex="1" parent="1">
          <mxGeometry x="1295" y="632" width="160" height="65" as="geometry" />
        </mxCell>
        <mxCell id="y2Dwyf6p7NAcK_J0pq-8-34" value="&amp;lt;&amp;lt;artifact&amp;gt;&amp;gt;" style="text;html=1;align=center;verticalAlign=middle;whiteSpace=wrap;rounded=0;" vertex="1" parent="1">
          <mxGeometry x="1345" y="632" width="60" height="30" as="geometry" />
        </mxCell>
        <mxCell id="y2Dwyf6p7NAcK_J0pq-8-35" value="PrintController.js" style="text;html=1;align=center;verticalAlign=middle;whiteSpace=wrap;rounded=0;" vertex="1" parent="1">
          <mxGeometry x="1332.5" y="667" width="85" height="30" as="geometry" />
        </mxCell>
        <mxCell id="y2Dwyf6p7NAcK_J0pq-8-36" value="" style="rounded=0;whiteSpace=wrap;html=1;" vertex="1" parent="1">
          <mxGeometry x="1295" y="730" width="160" height="65" as="geometry" />
        </mxCell>
        <mxCell id="y2Dwyf6p7NAcK_J0pq-8-37" value="&amp;lt;&amp;lt;artifact&amp;gt;&amp;gt;" style="text;html=1;align=center;verticalAlign=middle;whiteSpace=wrap;rounded=0;" vertex="1" parent="1">
          <mxGeometry x="1345" y="730" width="60" height="30" as="geometry" />
        </mxCell>
        <mxCell id="y2Dwyf6p7NAcK_J0pq-8-38" value="LoginController.js" style="text;html=1;align=center;verticalAlign=middle;whiteSpace=wrap;rounded=0;" vertex="1" parent="1">
          <mxGeometry x="1332.5" y="765" width="85" height="30" as="geometry" />
        </mxCell>
        <mxCell id="y2Dwyf6p7NAcK_J0pq-8-39" value="" style="rounded=0;whiteSpace=wrap;html=1;" vertex="1" parent="1">
          <mxGeometry x="1295" y="840" width="160" height="65" as="geometry" />
        </mxCell>
        <mxCell id="y2Dwyf6p7NAcK_J0pq-8-40" value="&amp;lt;&amp;lt;artifact&amp;gt;&amp;gt;" style="text;html=1;align=center;verticalAlign=middle;whiteSpace=wrap;rounded=0;" vertex="1" parent="1">
          <mxGeometry x="1350" y="840" width="55" height="27.5" as="geometry" />
        </mxCell>
        <mxCell id="y2Dwyf6p7NAcK_J0pq-8-41" value="PaymentController.js" style="text;html=1;align=center;verticalAlign=middle;whiteSpace=wrap;rounded=0;" vertex="1" parent="1">
          <mxGeometry x="1332.5" y="875" width="85" height="30" as="geometry" />
        </mxCell>
        <mxCell id="y2Dwyf6p7NAcK_J0pq-8-42" style="edgeStyle=orthogonalEdgeStyle;rounded=0;orthogonalLoop=1;jettySize=auto;html=1;exitX=0;exitY=0.5;exitDx=0;exitDy=0;dashed=1;" edge="1" parent="1">
          <mxGeometry relative="1" as="geometry">
            <mxPoint x="1295" y="660.5699999999999" as="sourcePoint" />
            <mxPoint x="1130" y="660.5699999999999" as="targetPoint" />
          </mxGeometry>
        </mxCell>
        <mxCell id="y2Dwyf6p7NAcK_J0pq-8-43" value="&amp;lt;&amp;lt;manifest&amp;gt;&amp;gt;" style="text;html=1;align=center;verticalAlign=middle;whiteSpace=wrap;rounded=0;" vertex="1" parent="1">
          <mxGeometry x="1181" y="627.5699999999999" width="60" height="30" as="geometry" />
        </mxCell>
        <mxCell id="y2Dwyf6p7NAcK_J0pq-8-46" style="edgeStyle=orthogonalEdgeStyle;rounded=0;orthogonalLoop=1;jettySize=auto;html=1;exitX=0;exitY=0.5;exitDx=0;exitDy=0;dashed=1;" edge="1" parent="1">
          <mxGeometry relative="1" as="geometry">
            <mxPoint x="1295" y="760.79" as="sourcePoint" />
            <mxPoint x="1130" y="760.79" as="targetPoint" />
          </mxGeometry>
        </mxCell>
        <mxCell id="y2Dwyf6p7NAcK_J0pq-8-47" value="&amp;lt;&amp;lt;manifest&amp;gt;&amp;gt;" style="text;html=1;align=center;verticalAlign=middle;whiteSpace=wrap;rounded=0;" vertex="1" parent="1">
          <mxGeometry x="1181" y="727.79" width="60" height="30" as="geometry" />
        </mxCell>
        <mxCell id="y2Dwyf6p7NAcK_J0pq-8-48" style="edgeStyle=orthogonalEdgeStyle;rounded=0;orthogonalLoop=1;jettySize=auto;html=1;exitX=0;exitY=0.5;exitDx=0;exitDy=0;dashed=1;" edge="1" parent="1">
          <mxGeometry relative="1" as="geometry">
            <mxPoint x="1295" y="868.5699999999999" as="sourcePoint" />
            <mxPoint x="1130" y="868.5699999999999" as="targetPoint" />
          </mxGeometry>
        </mxCell>
        <mxCell id="y2Dwyf6p7NAcK_J0pq-8-49" value="&amp;lt;&amp;lt;manifest&amp;gt;&amp;gt;" style="text;html=1;align=center;verticalAlign=middle;whiteSpace=wrap;rounded=0;" vertex="1" parent="1">
          <mxGeometry x="1181" y="835.5699999999999" width="60" height="30" as="geometry" />
        </mxCell>
        <mxCell id="y2Dwyf6p7NAcK_J0pq-8-51" value="&amp;lt;&amp;lt;execution enviroment&amp;gt;&amp;gt;&lt;div&gt;&lt;font style=&quot;font-size: 14px;&quot;&gt;NodeJS&lt;/font&gt;&lt;/div&gt;" style="text;html=1;align=center;verticalAlign=middle;whiteSpace=wrap;rounded=0;" vertex="1" parent="1">
          <mxGeometry x="1114.25" y="575.07" width="190.5" height="30" as="geometry" />
        </mxCell>
        <mxCell id="y2Dwyf6p7NAcK_J0pq-8-52" value="" style="rounded=1;whiteSpace=wrap;html=1;" vertex="1" parent="1">
          <mxGeometry x="970" y="450" width="160" height="65" as="geometry" />
        </mxCell>
        <mxCell id="y2Dwyf6p7NAcK_J0pq-8-53" value="&amp;lt;&amp;lt;component&amp;gt;&amp;gt;&amp;nbsp;" style="text;html=1;align=center;verticalAlign=middle;whiteSpace=wrap;rounded=0;" vertex="1" parent="1">
          <mxGeometry x="1020" y="450" width="60" height="30" as="geometry" />
        </mxCell>
        <mxCell id="y2Dwyf6p7NAcK_J0pq-8-54" value="&lt;span style=&quot;font-size: 16px;&quot;&gt;User&lt;/span&gt;" style="text;html=1;align=center;verticalAlign=middle;whiteSpace=wrap;rounded=0;" vertex="1" parent="1">
          <mxGeometry x="1001.25" y="485" width="97.5" height="30" as="geometry" />
        </mxCell>
        <mxCell id="y2Dwyf6p7NAcK_J0pq-8-55" value="" style="rounded=0;whiteSpace=wrap;html=1;" vertex="1" parent="1">
          <mxGeometry x="1297.5" y="450" width="160" height="65" as="geometry" />
        </mxCell>
        <mxCell id="y2Dwyf6p7NAcK_J0pq-8-56" value="&amp;lt;&amp;lt;artifact&amp;gt;&amp;gt;" style="text;html=1;align=center;verticalAlign=middle;whiteSpace=wrap;rounded=0;" vertex="1" parent="1">
          <mxGeometry x="1347.5" y="450" width="60" height="30" as="geometry" />
        </mxCell>
        <mxCell id="y2Dwyf6p7NAcK_J0pq-8-57" value="UserView.js" style="text;html=1;align=center;verticalAlign=middle;whiteSpace=wrap;rounded=0;" vertex="1" parent="1">
          <mxGeometry x="1335" y="485" width="85" height="30" as="geometry" />
        </mxCell>
        <mxCell id="y2Dwyf6p7NAcK_J0pq-8-58" style="edgeStyle=orthogonalEdgeStyle;rounded=0;orthogonalLoop=1;jettySize=auto;html=1;exitX=0;exitY=0.5;exitDx=0;exitDy=0;dashed=1;" edge="1" parent="1">
          <mxGeometry relative="1" as="geometry">
            <mxPoint x="1297.5" y="480.79" as="sourcePoint" />
            <mxPoint x="1132.5" y="480.79" as="targetPoint" />
          </mxGeometry>
        </mxCell>
        <mxCell id="y2Dwyf6p7NAcK_J0pq-8-59" value="&amp;lt;&amp;lt;manifest&amp;gt;&amp;gt;" style="text;html=1;align=center;verticalAlign=middle;whiteSpace=wrap;rounded=0;" vertex="1" parent="1">
          <mxGeometry x="1183.5" y="447.79" width="60" height="30" as="geometry" />
        </mxCell>
        <mxCell id="y2Dwyf6p7NAcK_J0pq-8-64" value="" style="rounded=1;whiteSpace=wrap;html=1;" vertex="1" parent="1">
          <mxGeometry x="970" y="950" width="160" height="65" as="geometry" />
        </mxCell>
        <mxCell id="y2Dwyf6p7NAcK_J0pq-8-65" value="&amp;lt;&amp;lt;component&amp;gt;&amp;gt;&amp;nbsp;" style="text;html=1;align=center;verticalAlign=middle;whiteSpace=wrap;rounded=0;" vertex="1" parent="1">
          <mxGeometry x="1025" y="950" width="60" height="30" as="geometry" />
        </mxCell>
        <mxCell id="y2Dwyf6p7NAcK_J0pq-8-66" value="&lt;span style=&quot;font-size: 16px;&quot;&gt;User Controller&lt;/span&gt;" style="text;html=1;align=center;verticalAlign=middle;whiteSpace=wrap;rounded=0;" vertex="1" parent="1">
          <mxGeometry x="995.63" y="985" width="118.75" height="30" as="geometry" />
        </mxCell>
        <mxCell id="y2Dwyf6p7NAcK_J0pq-8-67" value="" style="rounded=0;whiteSpace=wrap;html=1;" vertex="1" parent="1">
          <mxGeometry x="1297.5" y="950" width="160" height="65" as="geometry" />
        </mxCell>
        <mxCell id="y2Dwyf6p7NAcK_J0pq-8-68" value="&amp;lt;&amp;lt;artifact&amp;gt;&amp;gt;" style="text;html=1;align=center;verticalAlign=middle;whiteSpace=wrap;rounded=0;" vertex="1" parent="1">
          <mxGeometry x="1352.5" y="950" width="55" height="27.5" as="geometry" />
        </mxCell>
        <mxCell id="y2Dwyf6p7NAcK_J0pq-8-69" value="UserController.js" style="text;html=1;align=center;verticalAlign=middle;whiteSpace=wrap;rounded=0;" vertex="1" parent="1">
          <mxGeometry x="1335" y="985" width="85" height="30" as="geometry" />
        </mxCell>
        <mxCell id="y2Dwyf6p7NAcK_J0pq-8-70" style="edgeStyle=orthogonalEdgeStyle;rounded=0;orthogonalLoop=1;jettySize=auto;html=1;exitX=0;exitY=0.5;exitDx=0;exitDy=0;dashed=1;" edge="1" parent="1">
          <mxGeometry relative="1" as="geometry">
            <mxPoint x="1295" y="983.5699999999999" as="sourcePoint" />
            <mxPoint x="1130" y="983.5699999999999" as="targetPoint" />
          </mxGeometry>
        </mxCell>
        <mxCell id="y2Dwyf6p7NAcK_J0pq-8-71" value="&amp;lt;&amp;lt;manifest&amp;gt;&amp;gt;" style="text;html=1;align=center;verticalAlign=middle;whiteSpace=wrap;rounded=0;" vertex="1" parent="1">
          <mxGeometry x="1181" y="950.5699999999999" width="60" height="30" as="geometry" />
        </mxCell>
        <mxCell id="y2Dwyf6p7NAcK_J0pq-8-73" value="" style="endArrow=none;html=1;rounded=0;entryX=1;entryY=0;entryDx=0;entryDy=0;exitX=1;exitY=0;exitDx=0;exitDy=0;" edge="1" parent="1" source="y2Dwyf6p7NAcK_J0pq-8-23" target="y2Dwyf6p7NAcK_J0pq-8-72">
          <mxGeometry width="50" height="50" relative="1" as="geometry">
            <mxPoint x="1320" y="560" as="sourcePoint" />
            <mxPoint x="1370" y="510" as="targetPoint" />
          </mxGeometry>
        </mxCell>
        <mxCell id="y2Dwyf6p7NAcK_J0pq-8-74" value="" style="endArrow=none;html=1;rounded=0;entryX=0;entryY=0;entryDx=0;entryDy=0;exitX=0;exitY=0;exitDx=0;exitDy=0;" edge="1" parent="1" source="y2Dwyf6p7NAcK_J0pq-8-23" target="y2Dwyf6p7NAcK_J0pq-8-72">
          <mxGeometry width="50" height="50" relative="1" as="geometry">
            <mxPoint x="1320" y="560" as="sourcePoint" />
            <mxPoint x="1370" y="510" as="targetPoint" />
          </mxGeometry>
        </mxCell>
        <mxCell id="y2Dwyf6p7NAcK_J0pq-8-75" value="" style="endArrow=none;html=1;rounded=0;entryX=1;entryY=1;entryDx=0;entryDy=0;exitX=1;exitY=1;exitDx=0;exitDy=0;" edge="1" parent="1" source="y2Dwyf6p7NAcK_J0pq-8-23" target="y2Dwyf6p7NAcK_J0pq-8-72">
          <mxGeometry width="50" height="50" relative="1" as="geometry">
            <mxPoint x="1320" y="820" as="sourcePoint" />
            <mxPoint x="1370" y="770" as="targetPoint" />
          </mxGeometry>
        </mxCell>
        <mxCell id="y2Dwyf6p7NAcK_J0pq-8-77" value="" style="endArrow=none;html=1;rounded=0;entryX=1;entryY=0;entryDx=0;entryDy=0;exitX=1;exitY=0;exitDx=0;exitDy=0;" edge="1" parent="1" source="SW3iR9n_YRUjXRnQfsZG-70" target="y2Dwyf6p7NAcK_J0pq-8-76">
          <mxGeometry width="50" height="50" relative="1" as="geometry">
            <mxPoint x="1320" y="430" as="sourcePoint" />
            <mxPoint x="1370" y="380" as="targetPoint" />
          </mxGeometry>
        </mxCell>
        <mxCell id="y2Dwyf6p7NAcK_J0pq-8-78" value="" style="endArrow=none;html=1;rounded=0;entryX=1;entryY=1;entryDx=0;entryDy=0;exitX=1;exitY=1;exitDx=0;exitDy=0;" edge="1" parent="1" source="SW3iR9n_YRUjXRnQfsZG-70" target="y2Dwyf6p7NAcK_J0pq-8-76">
          <mxGeometry width="50" height="50" relative="1" as="geometry">
            <mxPoint x="1320" y="430" as="sourcePoint" />
            <mxPoint x="1370" y="380" as="targetPoint" />
          </mxGeometry>
        </mxCell>
        <mxCell id="y2Dwyf6p7NAcK_J0pq-8-79" value="" style="endArrow=none;html=1;rounded=0;entryX=0;entryY=0;entryDx=0;entryDy=0;exitX=0;exitY=0;exitDx=0;exitDy=0;" edge="1" parent="1" source="SW3iR9n_YRUjXRnQfsZG-70" target="y2Dwyf6p7NAcK_J0pq-8-76">
          <mxGeometry width="50" height="50" relative="1" as="geometry">
            <mxPoint x="1320" y="430" as="sourcePoint" />
            <mxPoint x="1360" y="370" as="targetPoint" />
          </mxGeometry>
        </mxCell>
        <mxCell id="y2Dwyf6p7NAcK_J0pq-8-81" value="" style="endArrow=none;html=1;rounded=0;entryX=0;entryY=0;entryDx=0;entryDy=0;exitX=0;exitY=0;exitDx=0;exitDy=0;" edge="1" parent="1" source="y2Dwyf6p7NAcK_J0pq-8-80" target="SW3iR9n_YRUjXRnQfsZG-68">
          <mxGeometry width="50" height="50" relative="1" as="geometry">
            <mxPoint x="1120" y="190" as="sourcePoint" />
            <mxPoint x="1170" y="140" as="targetPoint" />
          </mxGeometry>
        </mxCell>
        <mxCell id="y2Dwyf6p7NAcK_J0pq-8-84" value="" style="endArrow=none;html=1;rounded=0;entryX=1;entryY=0;entryDx=0;entryDy=0;exitX=1;exitY=0;exitDx=0;exitDy=0;" edge="1" parent="1" source="y2Dwyf6p7NAcK_J0pq-8-80" target="SW3iR9n_YRUjXRnQfsZG-68">
          <mxGeometry width="50" height="50" relative="1" as="geometry">
            <mxPoint x="1130" y="200" as="sourcePoint" />
            <mxPoint x="1180" y="150" as="targetPoint" />
          </mxGeometry>
        </mxCell>
        <mxCell id="y2Dwyf6p7NAcK_J0pq-8-85" value="" style="endArrow=none;html=1;rounded=0;entryX=1;entryY=1;entryDx=0;entryDy=0;exitX=1;exitY=1;exitDx=0;exitDy=0;" edge="1" parent="1" source="y2Dwyf6p7NAcK_J0pq-8-80" target="SW3iR9n_YRUjXRnQfsZG-68">
          <mxGeometry width="50" height="50" relative="1" as="geometry">
            <mxPoint x="1340" y="200" as="sourcePoint" />
            <mxPoint x="1390" y="150" as="targetPoint" />
          </mxGeometry>
        </mxCell>
        <mxCell id="y2Dwyf6p7NAcK_J0pq-8-93" value="" style="rounded=0;whiteSpace=wrap;html=1;" vertex="1" parent="1">
          <mxGeometry x="1828" y="115" width="480" height="600" as="geometry" />
        </mxCell>
        <mxCell id="y2Dwyf6p7NAcK_J0pq-8-94" value="" style="rounded=0;whiteSpace=wrap;html=1;" vertex="1" parent="1">
          <mxGeometry x="1895" y="182.57" width="370" height="430" as="geometry" />
        </mxCell>
        <mxCell id="y2Dwyf6p7NAcK_J0pq-8-95" value="" style="rounded=0;whiteSpace=wrap;html=1;" vertex="1" parent="1">
          <mxGeometry x="1870" y="210" width="370" height="430" as="geometry" />
        </mxCell>
        <mxCell id="y2Dwyf6p7NAcK_J0pq-8-96" value="" style="rounded=1;whiteSpace=wrap;html=1;" vertex="1" parent="1">
          <mxGeometry x="1895" y="290" width="120" height="60" as="geometry" />
        </mxCell>
        <mxCell id="y2Dwyf6p7NAcK_J0pq-8-103" value="" style="endArrow=none;html=1;rounded=0;entryX=1;entryY=0;entryDx=0;entryDy=0;exitX=1;exitY=0;exitDx=0;exitDy=0;" edge="1" parent="1" source="y2Dwyf6p7NAcK_J0pq-8-95" target="y2Dwyf6p7NAcK_J0pq-8-94">
          <mxGeometry width="50" height="50" relative="1" as="geometry">
            <mxPoint x="1940" y="460" as="sourcePoint" />
            <mxPoint x="1990" y="410" as="targetPoint" />
          </mxGeometry>
        </mxCell>
        <mxCell id="y2Dwyf6p7NAcK_J0pq-8-104" value="" style="endArrow=none;html=1;rounded=0;entryX=0;entryY=0;entryDx=0;entryDy=0;exitX=0;exitY=0;exitDx=0;exitDy=0;" edge="1" parent="1" source="y2Dwyf6p7NAcK_J0pq-8-95" target="y2Dwyf6p7NAcK_J0pq-8-94">
          <mxGeometry width="50" height="50" relative="1" as="geometry">
            <mxPoint x="1940" y="460" as="sourcePoint" />
            <mxPoint x="1990" y="410" as="targetPoint" />
          </mxGeometry>
        </mxCell>
        <mxCell id="y2Dwyf6p7NAcK_J0pq-8-105" value="" style="endArrow=none;html=1;rounded=0;entryX=1;entryY=1;entryDx=0;entryDy=0;exitX=1;exitY=1;exitDx=0;exitDy=0;" edge="1" parent="1" source="y2Dwyf6p7NAcK_J0pq-8-95" target="y2Dwyf6p7NAcK_J0pq-8-94">
          <mxGeometry width="50" height="50" relative="1" as="geometry">
            <mxPoint x="1940" y="460" as="sourcePoint" />
            <mxPoint x="1990" y="410" as="targetPoint" />
          </mxGeometry>
        </mxCell>
        <mxCell id="y2Dwyf6p7NAcK_J0pq-8-107" value="" style="endArrow=none;html=1;rounded=0;entryX=0;entryY=0;entryDx=0;entryDy=0;exitX=0;exitY=0;exitDx=0;exitDy=0;" edge="1" parent="1" source="y2Dwyf6p7NAcK_J0pq-8-93" target="y2Dwyf6p7NAcK_J0pq-8-106">
          <mxGeometry width="50" height="50" relative="1" as="geometry">
            <mxPoint x="1940" y="460" as="sourcePoint" />
            <mxPoint x="1990" y="410" as="targetPoint" />
          </mxGeometry>
        </mxCell>
        <mxCell id="y2Dwyf6p7NAcK_J0pq-8-108" value="" style="endArrow=none;html=1;rounded=0;entryX=1;entryY=0;entryDx=0;entryDy=0;exitX=1;exitY=0;exitDx=0;exitDy=0;" edge="1" parent="1" source="y2Dwyf6p7NAcK_J0pq-8-93" target="y2Dwyf6p7NAcK_J0pq-8-106">
          <mxGeometry width="50" height="50" relative="1" as="geometry">
            <mxPoint x="1940" y="460" as="sourcePoint" />
            <mxPoint x="1990" y="410" as="targetPoint" />
          </mxGeometry>
        </mxCell>
        <mxCell id="y2Dwyf6p7NAcK_J0pq-8-109" value="" style="endArrow=none;html=1;rounded=0;entryX=1;entryY=1;entryDx=0;entryDy=0;exitX=1;exitY=1;exitDx=0;exitDy=0;" edge="1" parent="1" source="y2Dwyf6p7NAcK_J0pq-8-93" target="y2Dwyf6p7NAcK_J0pq-8-106">
          <mxGeometry width="50" height="50" relative="1" as="geometry">
            <mxPoint x="1940" y="460" as="sourcePoint" />
            <mxPoint x="1990" y="410" as="targetPoint" />
          </mxGeometry>
        </mxCell>
        <mxCell id="y2Dwyf6p7NAcK_J0pq-8-110" value="&amp;lt;&amp;lt;execution enviroment&amp;gt;&amp;gt;&lt;div&gt;&lt;span style=&quot;font-size: 14px;&quot;&gt;SQL server&lt;/span&gt;&lt;/div&gt;" style="text;html=1;align=center;verticalAlign=middle;whiteSpace=wrap;rounded=0;" vertex="1" parent="1">
          <mxGeometry x="1959.75" y="220.00000000000006" width="190.5" height="30" as="geometry" />
        </mxCell>
        <mxCell id="y2Dwyf6p7NAcK_J0pq-8-111" value="&amp;lt;&amp;lt;schema&amp;gt;&amp;gt;" style="text;html=1;align=center;verticalAlign=middle;whiteSpace=wrap;rounded=0;" vertex="1" parent="1">
          <mxGeometry x="1925" y="290" width="60" height="30" as="geometry" />
        </mxCell>
        <mxCell id="y2Dwyf6p7NAcK_J0pq-8-112" value="&lt;span style=&quot;font-size:12.0pt;line-height:107%;&lt;br/&gt;font-family:&amp;quot;Times New Roman&amp;quot;,serif;mso-fareast-font-family:&amp;quot;Yu Mincho&amp;quot;;&lt;br/&gt;mso-fareast-theme-font:minor-fareast;mso-ansi-language:VI;mso-fareast-language:&lt;br/&gt;JA;mso-bidi-language:AR-SA&quot;&gt;User&lt;/span&gt;" style="text;html=1;align=center;verticalAlign=middle;whiteSpace=wrap;rounded=0;" vertex="1" parent="1">
          <mxGeometry x="1925" y="317.57" width="60" height="30" as="geometry" />
        </mxCell>
        <mxCell id="y2Dwyf6p7NAcK_J0pq-8-117" value="" style="rounded=1;whiteSpace=wrap;html=1;" vertex="1" parent="1">
          <mxGeometry x="2068" y="290" width="120" height="60" as="geometry" />
        </mxCell>
        <mxCell id="y2Dwyf6p7NAcK_J0pq-8-118" value="&amp;lt;&amp;lt;schema&amp;gt;&amp;gt;" style="text;html=1;align=center;verticalAlign=middle;whiteSpace=wrap;rounded=0;" vertex="1" parent="1">
          <mxGeometry x="2098" y="290" width="60" height="30" as="geometry" />
        </mxCell>
        <mxCell id="y2Dwyf6p7NAcK_J0pq-8-119" value="SPSO" style="text;html=1;align=center;verticalAlign=middle;whiteSpace=wrap;rounded=0;" vertex="1" parent="1">
          <mxGeometry x="2098" y="317.57" width="60" height="30" as="geometry" />
        </mxCell>
        <mxCell id="y2Dwyf6p7NAcK_J0pq-8-120" value="" style="rounded=1;whiteSpace=wrap;html=1;" vertex="1" parent="1">
          <mxGeometry x="1895" y="387.79" width="120" height="60" as="geometry" />
        </mxCell>
        <mxCell id="y2Dwyf6p7NAcK_J0pq-8-121" value="&amp;lt;&amp;lt;schema&amp;gt;&amp;gt;" style="text;html=1;align=center;verticalAlign=middle;whiteSpace=wrap;rounded=0;" vertex="1" parent="1">
          <mxGeometry x="1925" y="387.79" width="60" height="30" as="geometry" />
        </mxCell>
        <mxCell id="y2Dwyf6p7NAcK_J0pq-8-122" value="&lt;span style=&quot;font-size: 16px;&quot;&gt;PrintOrder&lt;/span&gt;" style="text;html=1;align=center;verticalAlign=middle;whiteSpace=wrap;rounded=0;" vertex="1" parent="1">
          <mxGeometry x="1910" y="415.36" width="90" height="30" as="geometry" />
        </mxCell>
        <mxCell id="y2Dwyf6p7NAcK_J0pq-8-126" value="" style="rounded=1;whiteSpace=wrap;html=1;" vertex="1" parent="1">
          <mxGeometry x="1978" y="509.99999999999994" width="120" height="60" as="geometry" />
        </mxCell>
        <mxCell id="y2Dwyf6p7NAcK_J0pq-8-127" value="&amp;lt;&amp;lt;schema&amp;gt;&amp;gt;" style="text;html=1;align=center;verticalAlign=middle;whiteSpace=wrap;rounded=0;" vertex="1" parent="1">
          <mxGeometry x="2008" y="509.99999999999994" width="60" height="30" as="geometry" />
        </mxCell>
        <mxCell id="y2Dwyf6p7NAcK_J0pq-8-128" value="&lt;span style=&quot;font-size:12.0pt;line-height:107%;&lt;br/&gt;font-family:&amp;quot;Times New Roman&amp;quot;,serif;mso-fareast-font-family:&amp;quot;Yu Mincho&amp;quot;;&lt;br/&gt;mso-fareast-theme-font:minor-fareast;mso-ansi-language:VI;mso-fareast-language:&lt;br/&gt;JA;mso-bidi-language:AR-SA&quot;&gt;File&lt;/span&gt;" style="text;html=1;align=center;verticalAlign=middle;whiteSpace=wrap;rounded=0;" vertex="1" parent="1">
          <mxGeometry x="2008" y="537.5699999999999" width="60" height="30" as="geometry" />
        </mxCell>
        <mxCell id="y2Dwyf6p7NAcK_J0pq-8-129" value="" style="rounded=1;whiteSpace=wrap;html=1;" vertex="1" parent="1">
          <mxGeometry x="2068" y="389.99999999999994" width="120" height="60" as="geometry" />
        </mxCell>
        <mxCell id="y2Dwyf6p7NAcK_J0pq-8-130" value="&amp;lt;&amp;lt;schema&amp;gt;&amp;gt;" style="text;html=1;align=center;verticalAlign=middle;whiteSpace=wrap;rounded=0;" vertex="1" parent="1">
          <mxGeometry x="2098" y="389.99999999999994" width="60" height="30" as="geometry" />
        </mxCell>
        <mxCell id="y2Dwyf6p7NAcK_J0pq-8-131" value="Printer" style="text;html=1;align=center;verticalAlign=middle;whiteSpace=wrap;rounded=0;" vertex="1" parent="1">
          <mxGeometry x="2098" y="417.57" width="60" height="30" as="geometry" />
        </mxCell>
        <mxCell id="y2Dwyf6p7NAcK_J0pq-8-132" value="&amp;lt;&amp;lt;server&amp;gt;&amp;gt;" style="text;html=1;align=center;verticalAlign=middle;whiteSpace=wrap;rounded=0;" vertex="1" parent="1">
          <mxGeometry x="2038" y="115" width="60" height="30" as="geometry" />
        </mxCell>
        <mxCell id="y2Dwyf6p7NAcK_J0pq-8-133" value="&lt;font style=&quot;font-size: 14px;&quot;&gt;Database&lt;/font&gt;" style="text;html=1;align=center;verticalAlign=middle;whiteSpace=wrap;rounded=0;" vertex="1" parent="1">
          <mxGeometry x="2038" y="140" width="60" height="30" as="geometry" />
        </mxCell>
        <mxCell id="y2Dwyf6p7NAcK_J0pq-8-134" value="&lt;font style=&quot;font-size: 14px;&quot;&gt;Client&lt;/font&gt;" style="text;html=1;align=center;verticalAlign=middle;whiteSpace=wrap;rounded=0;" vertex="1" parent="1">
          <mxGeometry x="467.5" y="360" width="60" height="30" as="geometry" />
        </mxCell>
        <mxCell id="y2Dwyf6p7NAcK_J0pq-8-135" value="&amp;lt;&amp;lt;browser&amp;gt;&amp;gt;" style="text;html=1;align=center;verticalAlign=middle;whiteSpace=wrap;rounded=0;" vertex="1" parent="1">
          <mxGeometry x="467.5" y="410.07" width="60" height="30" as="geometry" />
        </mxCell>
        <mxCell id="y2Dwyf6p7NAcK_J0pq-8-136" value="&amp;lt;&amp;lt;artifact&amp;gt;&amp;gt;" style="text;html=1;align=center;verticalAlign=middle;whiteSpace=wrap;rounded=0;" vertex="1" parent="1">
          <mxGeometry x="467.5" y="457.57" width="60" height="30" as="geometry" />
        </mxCell>
        <mxCell id="y2Dwyf6p7NAcK_J0pq-8-137" value="&lt;font style=&quot;font-size: 14px;&quot;&gt;HTML&lt;/font&gt;" style="text;html=1;align=center;verticalAlign=middle;whiteSpace=wrap;rounded=0;" vertex="1" parent="1">
          <mxGeometry x="470" y="490" width="60" height="30" as="geometry" />
        </mxCell>
        <mxCell id="y2Dwyf6p7NAcK_J0pq-8-138" style="edgeStyle=orthogonalEdgeStyle;rounded=0;orthogonalLoop=1;jettySize=auto;html=1;exitX=1;exitY=0.5;exitDx=0;exitDy=0;strokeWidth=2;" edge="1" parent="1" source="SW3iR9n_YRUjXRnQfsZG-14">
          <mxGeometry relative="1" as="geometry">
            <mxPoint x="920" y="478" as="targetPoint" />
          </mxGeometry>
        </mxCell>
        <mxCell id="y2Dwyf6p7NAcK_J0pq-8-139" value="&amp;lt;&amp;lt;HTTP/HTTPS&amp;gt;&amp;gt;" style="text;html=1;align=center;verticalAlign=middle;whiteSpace=wrap;rounded=0;" vertex="1" parent="1">
          <mxGeometry x="720" y="447.79" width="60" height="30" as="geometry" />
        </mxCell>
        <mxCell id="y2Dwyf6p7NAcK_J0pq-8-144" style="edgeStyle=orthogonalEdgeStyle;rounded=0;orthogonalLoop=1;jettySize=auto;html=1;exitX=1;exitY=0.5;exitDx=0;exitDy=0;entryX=0.25;entryY=1;entryDx=0;entryDy=0;strokeWidth=2;" edge="1" parent="1" source="y2Dwyf6p7NAcK_J0pq-8-72" target="y2Dwyf6p7NAcK_J0pq-8-95">
          <mxGeometry relative="1" as="geometry" />
        </mxCell>
        <mxCell id="y2Dwyf6p7NAcK_J0pq-8-145" value="&amp;lt;&amp;lt;TCP/IP&amp;gt;&amp;gt;" style="text;html=1;align=center;verticalAlign=middle;whiteSpace=wrap;rounded=0;" vertex="1" parent="1">
          <mxGeometry x="1750" y="760" width="60" height="30" as="geometry" />
        </mxCell>
      </root>
    </mxGraphModel>
  </diagram>
</mxfile>
